<svg xmlns="http://www.w3.org/2000/svg" version="1.1" style="display:none" data-usage="social-icons-svg"><symbol id="instagram-unauth-icon" viewBox="0 0 64 64"><path d="M46.91,25.816c-0.073-1.597-0.326-2.687-0.697-3.641c-0.383-0.986-0.896-1.823-1.73-2.657c-0.834-0.834-1.67-1.347-2.657-1.73c-0.954-0.371-2.045-0.624-3.641-0.697C36.585,17.017,36.074,17,32,17s-4.585,0.017-6.184,0.09c-1.597,0.073-2.687,0.326-3.641,0.697c-0.986,0.383-1.823,0.896-2.657,1.73c-0.834,0.834-1.347,1.67-1.73,2.657c-0.371,0.954-0.624,2.045-0.697,3.641C17.017,27.415,17,27.926,17,32c0,4.074,0.017,4.585,0.09,6.184c0.073,1.597,0.326,2.687,0.697,3.641c0.383,0.986,0.896,1.823,1.73,2.657c0.834,0.834,1.67,1.347,2.657,1.73c0.954,0.371,2.045,0.624,3.641,0.697C27.415,46.983,27.926,47,32,47s4.585-0.017,6.184-0.09c1.597-0.073,2.687-0.326,3.641-0.697c0.986-0.383,1.823-0.896,2.657-1.73c0.834-0.834,1.347-1.67,1.73-2.657c0.371-0.954,0.624-2.045,0.697-3.641C46.983,36.585,47,36.074,47,32S46.983,27.415,46.91,25.816z M44.21,38.061c-0.067,1.462-0.311,2.257-0.516,2.785c-0.272,0.7-0.597,1.2-1.122,1.725c-0.525,0.525-1.025,0.85-1.725,1.122c-0.529,0.205-1.323,0.45-2.785,0.516c-1.581,0.072-2.056,0.087-6.061,0.087s-4.48-0.015-6.061-0.087c-1.462-0.067-2.257-0.311-2.785-0.516c-0.7-0.272-1.2-0.597-1.725-1.122c-0.525-0.525-0.85-1.025-1.122-1.725c-0.205-0.529-0.45-1.323-0.516-2.785c-0.072-1.582-0.087-2.056-0.087-6.061s0.015-4.48,0.087-6.061c0.067-1.462,0.311-2.257,0.516-2.785c0.272-0.7,0.597-1.2,1.122-1.725c0.525-0.525,1.025-0.85,1.725-1.122c0.529-0.205,1.323-0.45,2.785-0.516c1.582-0.072,2.056-0.087,6.061-0.087s4.48,0.015,6.061,0.087c1.462,0.067,2.257,0.311,2.785,0.516c0.7,0.272,1.2,0.597,1.725,1.122c0.525,0.525,0.85,1.025,1.122,1.725c0.205,0.529,0.45,1.323,0.516,2.785c0.072,1.582,0.087,2.056,0.087,6.061S44.282,36.48,44.21,38.061z M32,24.297c-4.254,0-7.703,3.449-7.703,7.703c0,4.254,3.449,7.703,7.703,7.703c4.254,0,7.703-3.449,7.703-7.703C39.703,27.746,36.254,24.297,32,24.297z M32,37c-2.761,0-5-2.239-5-5c0-2.761,2.239-5,5-5s5,2.239,5,5C37,34.761,34.761,37,32,37z M40.007,22.193c-0.994,0-1.8,0.806-1.8,1.8c0,0.994,0.806,1.8,1.8,1.8c0.994,0,1.8-0.806,1.8-1.8C41.807,22.999,41.001,22.193,40.007,22.193z"></path></symbol><symbol id="instagram-unauth-mask" viewBox="0 0 64 64"><path d="M43.693,23.153c-0.272-0.7-0.597-1.2-1.122-1.725c-0.525-0.525-1.025-0.85-1.725-1.122c-0.529-0.205-1.323-0.45-2.785-0.517c-1.582-0.072-2.056-0.087-6.061-0.087s-4.48,0.015-6.061,0.087c-1.462,0.067-2.257,0.311-2.785,0.517c-0.7,0.272-1.2,0.597-1.725,1.122c-0.525,0.525-0.85,1.025-1.122,1.725c-0.205,0.529-0.45,1.323-0.516,2.785c-0.072,1.582-0.087,2.056-0.087,6.061s0.015,4.48,0.087,6.061c0.067,1.462,0.311,2.257,0.516,2.785c0.272,0.7,0.597,1.2,1.122,1.725s1.025,0.85,1.725,1.122c0.529,0.205,1.323,0.45,2.785,0.516c1.581,0.072,2.056,0.087,6.061,0.087s4.48-0.015,6.061-0.087c1.462-0.067,2.257-0.311,2.785-0.516c0.7-0.272,1.2-0.597,1.725-1.122s0.85-1.025,1.122-1.725c0.205-0.529,0.45-1.323,0.516-2.785c0.072-1.582,0.087-2.056,0.087-6.061s-0.015-4.48-0.087-6.061C44.143,24.476,43.899,23.682,43.693,23.153z M32,39.703c-4.254,0-7.703-3.449-7.703-7.703s3.449-7.703,7.703-7.703s7.703,3.449,7.703,7.703S36.254,39.703,32,39.703z M40.007,25.793c-0.994,0-1.8-0.806-1.8-1.8c0-0.994,0.806-1.8,1.8-1.8c0.994,0,1.8,0.806,1.8,1.8C41.807,24.987,41.001,25.793,40.007,25.793z M0,0v64h64V0H0z M46.91,38.184c-0.073,1.597-0.326,2.687-0.697,3.641c-0.383,0.986-0.896,1.823-1.73,2.657c-0.834,0.834-1.67,1.347-2.657,1.73c-0.954,0.371-2.044,0.624-3.641,0.697C36.585,46.983,36.074,47,32,47s-4.585-0.017-6.184-0.09c-1.597-0.073-2.687-0.326-3.641-0.697c-0.986-0.383-1.823-0.896-2.657-1.73c-0.834-0.834-1.347-1.67-1.73-2.657c-0.371-0.954-0.624-2.044-0.697-3.641C17.017,36.585,17,36.074,17,32c0-4.074,0.017-4.585,0.09-6.185c0.073-1.597,0.326-2.687,0.697-3.641c0.383-0.986,0.896-1.823,1.73-2.657c0.834-0.834,1.67-1.347,2.657-1.73c0.954-0.371,2.045-0.624,3.641-0.697C27.415,17.017,27.926,17,32,17s4.585,0.017,6.184,0.09c1.597,0.073,2.687,0.326,3.641,0.697c0.986,0.383,1.823,0.896,2.657,1.73c0.834,0.834,1.347,1.67,1.73,2.657c0.371,0.954,0.624,2.044,0.697,3.641C46.983,27.415,47,27.926,47,32C47,36.074,46.983,36.585,46.91,38.184z M32,27c-2.761,0-5,2.239-5,5s2.239,5,5,5s5-2.239,5-5S34.761,27,32,27z"></path></symbol><symbol id="facebook-unauth-icon" viewBox="0 0 64 64"><path d="M34.1,47V33.3h4.6l0.7-5.3h-5.3v-3.4c0-1.5,0.4-2.6,2.6-2.6l2.8,0v-4.8c-0.5-0.1-2.2-0.2-4.1-0.2 c-4.1,0-6.9,2.5-6.9,7V28H24v5.3h4.6V47H34.1z"></path></symbol><symbol id="facebook-unauth-mask" viewBox="0 0 64 64"><path d="M0,0v64h64V0H0z M39.6,22l-2.8,0c-2.2,0-2.6,1.1-2.6,2.6V28h5.3l-0.7,5.3h-4.6V47h-5.5V33.3H24V28h4.6V24 c0-4.6,2.8-7,6.9-7c2,0,3.6,0.1,4.1,0.2V22z"></path></symbol><symbol id="imdb-icon" viewBox="0 0 64 64"><g class="svg-icon"><path d="M43.91,20H20.09C17.831,20,16,21.831,16,24.09v14.82c0,2.259,1.831,4.09,4.09,4.09h23.82c2.259,0,4.09-1.831,4.09-4.09V24.09C48,21.831,46.169,20,43.91,20z M46,38.91c0,1.152-0.938,2.09-2.09,2.09H20.09C18.938,41,18,40.062,18,38.91V24.09c0-1.152,0.938-2.09,2.09-2.09h23.82c1.152,0,2.09,0.938,2.09,2.09V38.91z M20,35h1.337v-7.999H20V35z M26.321,30.669l-2.057-3.668h-1.382V35h1.291v-5.645l2.114,3.691h0.035l2.126-3.702V35h1.313v-7.999h-1.406L26.321,30.669zM33.751,27.001h-2.446V35h2.446c2.285,0,3.794-1.611,3.794-3.954v-0.103C37.545,28.6,36.037,27.001,33.751,27.001z M36.174,31.035c0,1.725-0.982,2.754-2.433,2.754h-1.109v-5.588h1.109c1.452,0,2.433,1.062,2.433,2.777V31.035z M41.646,28.829c-0.857,0-1.394,0.503-1.771,1.086v-3.166h-1.291V35h1.291v-0.914c0.366,0.525,0.903,1.028,1.771,1.028c1.223,0,2.354-1.017,2.354-3.074v-0.148C44,29.846,42.857,28.829,41.646,28.829z M42.698,32.029c0,1.211-0.618,1.942-1.406,1.942c-0.777,0-1.44-0.754-1.44-1.942v-0.114c0-1.189,0.663-1.943,1.44-1.943c0.777,0,1.406,0.743,1.406,1.954V32.029z"></path></g></symbol><symbol id="imdb-mask" viewBox="0 0 64 64"><g class="svg-mask"><path d="M33.74,28.201h-1.109v5.588h1.109c1.452,0,2.433-1.029,2.433-2.754v-0.057C36.174,29.263,35.192,28.201,33.74,28.201z M41.292,29.972c-0.777,0-1.44,0.754-1.44,1.943v0.114c0,1.188,0.663,1.942,1.44,1.942c0.788,0,1.406-0.731,1.406-1.942v-0.103C42.698,30.715,42.069,29.972,41.292,29.972z M43.91,22H20.09C18.938,22,18,22.938,18,24.09v14.82c0,1.152,0.938,2.09,2.09,2.09h23.82c1.152,0,2.09-0.938,2.09-2.09V24.09C46,22.938,45.062,22,43.91,22z M21.337,35H20v-7.999h1.337V35z M29.761,35h-1.313v-5.656l-2.126,3.702h-0.035l-2.114-3.691V35h-1.291v-7.999h1.382l2.057,3.668l2.034-3.668h1.406V35zM37.545,31.046c0,2.343-1.508,3.954-3.794,3.954h-2.446v-7.999h2.446c2.285,0,3.794,1.6,3.794,3.942V31.046z M44,32.04c0,2.057-1.131,3.074-2.354,3.074c-0.868,0-1.405-0.503-1.771-1.028V35h-1.291v-8.251h1.291v3.166c0.377-0.583,0.914-1.086,1.771-1.086c1.211,0,2.354,1.017,2.354,3.063V32.04z M0,0v64h64V0H0z M48,38.91c0,2.259-1.831,4.09-4.09,4.09H20.09C17.831,43,16,41.169,16,38.91V24.09c0-2.259,1.831-4.09,4.09-4.09h23.82c2.259,0,4.09,1.831,4.09,4.09V38.91z"></path></g></symbol><symbol id="linkedin-unauth-icon" viewBox="0 0 64 64"><path d="M20.4,44h5.4V26.6h-5.4V44z M23.1,18c-1.7,0-3.1,1.4-3.1,3.1c0,1.7,1.4,3.1,3.1,3.1 c1.7,0,3.1-1.4,3.1-3.1C26.2,19.4,24.8,18,23.1,18z M39.5,26.2c-2.6,0-4.4,1.4-5.1,2.8h-0.1v-2.4h-5.2V44h5.4v-8.6 c0-2.3,0.4-4.5,3.2-4.5c2.8,0,2.8,2.6,2.8,4.6V44H46v-9.5C46,29.8,45,26.2,39.5,26.2z"></path></symbol><symbol id="linkedin-unauth-mask" viewBox="0 0 64 64"><path d="M0,0v64h64V0H0z M25.8,44h-5.4V26.6h5.4V44z M23.1,24.3c-1.7,0-3.1-1.4-3.1-3.1c0-1.7,1.4-3.1,3.1-3.1 c1.7,0,3.1,1.4,3.1,3.1C26.2,22.9,24.8,24.3,23.1,24.3z M46,44h-5.4v-8.4c0-2,0-4.6-2.8-4.6c-2.8,0-3.2,2.2-3.2,4.5V44h-5.4V26.6 h5.2V29h0.1c0.7-1.4,2.5-2.8,5.1-2.8c5.5,0,6.5,3.6,6.5,8.3V44z"></path></symbol><symbol id="youtube-unauth-icon" viewBox="0 0 64 64"><path d="M46.7,26c0,0-0.3-2.1-1.2-3c-1.1-1.2-2.4-1.2-3-1.3C38.3,21.4,32,21.4,32,21.4h0 c0,0-6.3,0-10.5,0.3c-0.6,0.1-1.9,0.1-3,1.3c-0.9,0.9-1.2,3-1.2,3S17,28.4,17,30.9v2.3c0,2.4,0.3,4.9,0.3,4.9s0.3,2.1,1.2,3 c1.1,1.2,2.6,1.2,3.3,1.3c2.4,0.2,10.2,0.3,10.2,0.3s6.3,0,10.5-0.3c0.6-0.1,1.9-0.1,3-1.3c0.9-0.9,1.2-3,1.2-3s0.3-2.4,0.3-4.9 v-2.3C47,28.4,46.7,26,46.7,26z M28.9,35.9l0-8.4l8.1,4.2L28.9,35.9z"></path></symbol><symbol id="youtube-unauth-mask" viewBox="0 0 64 64"><path d="M0,0v64h64V0H0z M47,33.1c0,2.4-0.3,4.9-0.3,4.9s-0.3,2.1-1.2,3c-1.1,1.2-2.4,1.2-3,1.3 C38.3,42.5,32,42.6,32,42.6s-7.8-0.1-10.2-0.3c-0.7-0.1-2.2-0.1-3.3-1.3c-0.9-0.9-1.2-3-1.2-3S17,35.6,17,33.1v-2.3 c0-2.4,0.3-4.9,0.3-4.9s0.3-2.1,1.2-3c1.1-1.2,2.4-1.2,3-1.3c4.2-0.3,10.5-0.3,10.5-0.3h0c0,0,6.3,0,10.5,0.3c0.6,0.1,1.9,0.1,3,1.3 c0.9,0.9,1.2,3,1.2,3s0.3,2.4,0.3,4.9V33.1z M28.9,35.9l8.1-4.2l-8.1-4.2L28.9,35.9z"></path></symbol><symbol id="tiktok-unauth-icon" viewBox="0 0 64 64"><path d="M37.9281 17C38.4298 21.2545 40.825 23.7941 45 24.0658V28.8451C42.5859 29.0794 40.4652 28.3016 38.0038 26.821V35.7423C38.0038 47.147 25.4788 50.7361 20.4233 42.5457C17.1856 37.3073 19.1642 28.1048 29.5496 27.73V32.781C28.7296 32.9058 27.9219 33.1002 27.1355 33.362C24.835 34.1398 23.5191 35.583 23.8883 38.1413C24.5889 43.033 33.6584 44.4856 32.901 34.9176V17H37.9091H37.9281Z"></path></symbol><symbol id="tiktok-unauth-mask" viewBox="0 0 64 64"><path fill-rule="evenodd" clip-rule="evenodd" d="M64 0H0V64H64V0ZM45.44 23.54C41 23.25 38.5 20.54 38 16H32.68V35.12C33.48 45.33 23.9 43.78 23.16 38.56C22.78 35.83 24.16 34.29 26.6 33.46C27.4272 33.1806 28.2771 32.9732 29.14 32.84V27.45C18.18 27.85 16.08 37.67 19.5 43.26C24.82 52 38.05 48.17 38.05 36V26.48C40.65 28.06 42.89 28.89 45.44 28.64V23.54Z"></path></symbol></svg>